<svg width="18" height="22" viewBox="0 0 18 22" fill="none" xmlns="http://www.w3.org/2000/svg">
<path d="M13.5 6V21.2417L7.19696 18.5404L7 18.456L6.80304 18.5404L0.5 21.2417V6C0.5 5.58379 0.642483 5.23962 0.941554 4.94055C1.24061 4.6415 1.58424 4.4995 1.99939 4.5H2H12C12.4162 4.5 12.7604 4.64248 13.0594 4.94155C13.3585 5.24061 13.5005 5.58424 13.5 5.99939V6ZM2 4H12C12.55 4 13.021 4.196 13.413 4.588C13.805 4.98 14.0007 5.45067 14 6L2 4ZM1.5 18.95V19.7093L2.19751 19.4093L7 17.3443L11.8025 19.4093L12.5 19.7093V18.95V6V5.5H12H2H1.5V6V18.95ZM17.5 2V18.5H16.5V2V1.5H16H3.5V0.5H16C16.4162 0.5 16.7604 0.642483 17.0594 0.941554C17.3585 1.24061 17.5005 1.58424 17.5 1.99939V2Z" fill="#626262" stroke="#626262"/>
</svg>
