<svg width="22" height="20" viewBox="0 0 22 20" fill="none" xmlns="http://www.w3.org/2000/svg">
<path d="M19.9528 6.08601C18.8255 4.53913 17.2505 3.50554 15.5231 3.03913V3.04148C15.1223 2.59617 14.67 2.18601 14.1637 1.82038C10.327 -0.968678 4.94109 -0.117897 2.14031 3.71882C-0.116719 6.83601 -0.0206252 11.029 2.28094 14.0079L2.29969 17.1157C2.29969 17.1907 2.31141 17.2657 2.33484 17.336C2.45906 17.7321 2.88094 17.9501 3.27469 17.8259L6.24187 16.8907C7.02703 17.1696 7.83797 17.329 8.64422 17.3735L8.6325 17.3829C10.7208 18.904 13.4583 19.361 15.9684 18.5313L18.9473 19.5016C19.0223 19.5251 19.0997 19.5391 19.1794 19.5391C19.5942 19.5391 19.9294 19.204 19.9294 18.7891V15.6485C21.9942 12.8454 22.0481 8.97117 19.9528 6.08601ZM6.57 15.2266L6.28875 15.1094L3.96844 15.836L3.945 13.3985L3.7575 13.1876C1.77469 10.7688 1.64344 7.28367 3.49969 4.72663C5.75906 1.6282 10.0903 0.943822 13.1794 3.17976C16.2778 5.4321 16.9645 9.75632 14.7262 12.836C12.8489 15.4118 9.48797 16.3634 6.57 15.2266ZM18.4059 14.8282L18.2184 15.0626L18.2419 17.5001L15.945 16.7266L15.6637 16.8438C14.3512 17.3313 12.952 17.3712 11.6559 17.0079L11.6512 17.0055C13.3833 16.4735 14.9536 15.3954 16.0856 13.8438C17.8762 11.3759 18.1669 8.27507 17.1262 5.63132L17.1403 5.6407C17.6794 6.02742 18.1739 6.51023 18.5934 7.09382C20.295 9.4282 20.1989 12.6063 18.4059 14.8282Z" fill="black"/>
</svg>
