<svg width="20" height="20" viewBox="0 0 20 20" fill="none" xmlns="http://www.w3.org/2000/svg">
<path d="M17.3172 14.404C16.7306 13.8169 16.0451 13.3377 15.2922 12.9883C16.354 12.1282 17.0313 10.8157 17.0313 9.34381C17.0313 6.74694 14.8657 4.61647 12.2688 4.65631C9.71178 4.69616 7.65162 6.77975 7.65162 9.34381C7.65162 10.8157 8.33131 12.1282 9.39068 12.9883C8.63765 13.3374 7.95214 13.8166 7.36568 14.404C6.086 15.686 5.35943 17.3782 5.31256 19.1829C5.31193 19.2079 5.31632 19.2328 5.32546 19.2561C5.33461 19.2794 5.34832 19.3006 5.36579 19.3185C5.38326 19.3364 5.40415 19.3506 5.42721 19.3604C5.45027 19.3701 5.47504 19.3751 5.50006 19.3751H6.81256C6.91334 19.3751 6.99771 19.2954 7.00006 19.1946C7.04459 17.8352 7.59537 16.5626 8.56334 15.5969C9.05867 15.099 9.64784 14.7042 10.2968 14.4355C10.9457 14.1667 11.6414 14.0294 12.3438 14.0313C13.7712 14.0313 15.1141 14.5868 16.1243 15.5969C17.0899 16.5626 17.6407 17.8352 17.6876 19.1946C17.6899 19.2954 17.7743 19.3751 17.8751 19.3751H19.1876C19.2126 19.3751 19.2374 19.3701 19.2604 19.3604C19.2835 19.3506 19.3044 19.3364 19.3218 19.3185C19.3393 19.3006 19.353 19.2794 19.3622 19.2561C19.3713 19.2328 19.3757 19.2079 19.3751 19.1829C19.3282 17.3782 18.6016 15.686 17.3172 14.404ZM12.3438 12.3438C11.5422 12.3438 10.7876 12.0321 10.2227 11.4649C9.93924 11.1837 9.71533 10.8482 9.56432 10.4786C9.41332 10.1089 9.33832 9.71262 9.34381 9.31334C9.35084 8.54459 9.65787 7.80162 10.1946 7.25084C10.7571 6.67428 11.5094 6.35319 12.3133 6.34381C13.1079 6.33678 13.879 6.64616 14.4462 7.20162C15.0274 7.77116 15.3462 8.53287 15.3462 9.34381C15.3462 10.1454 15.0344 10.8977 14.4672 11.4649C14.189 11.7445 13.858 11.9661 13.4935 12.117C13.1291 12.2679 12.7383 12.345 12.3438 12.3438ZM6.47271 9.96256C6.45162 9.75866 6.4399 9.55241 6.4399 9.34381C6.4399 8.97116 6.47506 8.60787 6.54068 8.25397C6.55709 8.16959 6.51256 8.08287 6.43521 8.04772C6.11646 7.90475 5.8235 7.70787 5.57037 7.45944C5.2721 7.17024 5.0374 6.82203 4.88123 6.43705C4.72505 6.05207 4.65085 5.63876 4.66334 5.2235C4.68443 4.47116 4.98678 3.75631 5.51412 3.21725C6.09303 2.62428 6.87115 2.30084 7.6985 2.31022C8.44615 2.31725 9.16803 2.60553 9.71412 3.11647C9.89928 3.28991 10.0587 3.48209 10.1922 3.68834C10.2391 3.761 10.3305 3.79147 10.4102 3.76334C10.8227 3.62037 11.2587 3.51959 11.7063 3.47272C11.8376 3.45866 11.9126 3.31803 11.854 3.20084C11.0922 1.69381 9.536 0.653187 7.736 0.625062C5.13678 0.585218 2.97115 2.71569 2.97115 5.31022C2.97115 6.78209 3.6485 8.09459 4.71021 8.95475C3.9649 9.29928 3.27818 9.77506 2.68287 10.3704C1.3985 11.6524 0.671934 13.3446 0.625059 15.1516C0.624433 15.1766 0.628821 15.2015 0.637963 15.2248C0.647105 15.2481 0.660817 15.2693 0.678291 15.2872C0.695764 15.3052 0.716646 15.3194 0.739706 15.3291C0.762766 15.3388 0.787536 15.3438 0.812559 15.3438H2.1274C2.22818 15.3438 2.31256 15.2641 2.3149 15.1633C2.35943 13.804 2.91021 12.5313 3.87818 11.5657C4.56725 10.8766 5.411 10.3985 6.33209 10.1665C6.4235 10.143 6.48443 10.0563 6.47271 9.96256Z" fill="#626262"/>
</svg>
